<svg width="18" height="18" viewBox="0 0 18 18" xmlns="http://www.w3.org/2000/svg"><g fill="currentColor"><path d="M11.4887075,0.0019047832 L17.0680798,0.0019047832 C17.3158434,-0.00280688135 17.5545846,0.0948599771 17.7280056,0.271874408 C17.90502,0.445295434 18.0026869,0.684036645 17.9979752,0.931800164 L17.9979752,6.51117248 C18.0020729,6.75902955 17.9054184,6.99794037 17.7301331,7.17322573 C17.5548477,7.34851109 17.3159369,7.44516554 17.0680798,7.44106788 C16.8209716,7.44233739 16.5835203,7.34519821 16.4081541,7.17109826 C16.2311396,6.99767723 16.1334728,6.75893601 16.1381844,6.51117248 L16.1381844,3.18154707 L8.42905172,10.8906798 C8.25775497,11.070828 8.01757069,11.1690852 7.76912597,11.1606494 C7.53042177,11.168739 7.29829301,11.0816034 7.12387408,10.9184373 C6.94945516,10.7552712 6.84705493,10.5294603 6.83923059,10.2907473 C6.83506954,10.0474768 6.93297916,9.81358156 7.10920021,9.64581984 L14.8183329,1.86169556 L11.4887075,1.86169556 C11.240944,1.86640723 11.0022028,1.76874037 10.8287818,1.59172594 C10.6279597,1.43028217 10.5074806,1.1893241 10.4988189,0.931800164 C10.5130977,0.675735361 10.6324972,0.436936354 10.8287818,0.271874408 C11.0022028,0.0948599726 11.240944,-0.00280688622 11.4887075,0.0019047832 Z"/><path d="M17.0530815,10.5757152 C16.5287502,10.5756512 16.1013822,10.9963416 16.0931895,11.5206089 L16.0931895,16.0950943 L1.90478572,16.0950943 L1.90478572,1.9066905 L6.47927109,1.9066905 C6.74407575,1.92327372 7.00393377,1.82951188 7.19714227,1.64766858 C7.39035077,1.46582528 7.49967509,1.21212139 7.49915634,0.946798488 C7.49968369,0.685447706 7.39194024,0.435551058 7.2015408,0.256518754 C7.01114137,0.0774864514 6.75509336,-0.0146894811 6.49426939,0.0019047832 L0.944893705,0.0019047832 C0.423043322,0.0019047832 0,0.424948105 0,0.946798488 L0,17.0549863 C0.00261478803,17.3057674 0.0989105867,17.5465069 0.269969625,17.7299104 C0.453373064,17.9009694 0.694112567,17.9972652 0.944893705,17.9999962 L17.0530815,17.9999962 C17.3049162,18.0039757 17.5476406,17.9057404 17.7257381,17.7276429 C17.9038357,17.5495454 18.0020709,17.3068209 17.9980984,17.0549863 L17.9980984,11.5206089 C17.9980984,10.9987585 17.5749319,10.5757152 17.0530815,10.5757152 Z"/></g></svg>