<svg xmlns="http://www.w3.org/2000/svg" width="20" height="16" viewBox="0 0 20 16"><path fill="#DBE4FF" d="M32.1052632,10 C33.7010526,10 35,11.3157333 35,12.9333333 L35,23.0666667 C35,24.6837334 33.7010526,26 32.1052632,26 L17.8947368,26 C16.2967393,25.9982364 15.0017404,24.6859709 15,23.0666667 L15,12.9333333 C15,11.3157333 16.298421,10 17.8947368,10 L32.1052632,10 Z M32.1052632,11.6 L17.8947368,11.6 C17.1684071,11.6008816 16.5798174,12.1973191 16.5789474,12.9333333 L16.5789474,23.0666667 C16.5789474,23.8021333 17.1694737,24.4 17.8947368,24.4 L32.1052632,24.4 C32.8310526,24.4 33.4210526,23.8021333 33.4210526,23.0666667 L33.421,21.733 L29.2105263,21.7333333 C27.1794737,21.7333333 25.5263158,20.0581333 25.5263158,18 C25.5263158,15.9413333 27.1794737,14.2666667 29.2105263,14.2666667 L33.421,14.266 L33.4210526,12.9333333 C33.4210526,12.1984 32.8310526,11.6 32.1052632,11.6 Z M33.4210526,15.8666667 L29.2105263,15.8666667 C28.0494737,15.8666667 27.1052632,16.8234667 27.1052632,18 C27.1052632,19.1765333 28.0494737,20.1333333 29.2105263,20.1333333 L33.4210526,20.1333333 L33.4210526,15.8666667 Z M29.7368421,16.9333333 C30.3181945,16.9333333 30.7894737,17.4108963 30.7894737,18 C30.7894737,18.5891037 30.3181945,19.0666667 29.7368421,19.0666667 C29.1554897,19.0666667 28.6842105,18.5891037 28.6842105,18 C28.6842105,17.4108963 29.1554897,16.9333333 29.7368421,16.9333333 Z" transform="translate(-15 -10)"/></svg>