<svg xmlns="http://www.w3.org/2000/svg" width="39" height="46" viewBox="0 0 39 46">
  <defs>
    <linearGradient id="about-icon6-a" x1="50%" x2="50%" y1=".971%" y2="99.059%">
      <stop offset="0%" stop-color="#12B27B"/>
      <stop offset="100%" stop-color="#018457"/>
    </linearGradient>
    <linearGradient id="about-icon6-b" x1="50%" x2="50%" y1=".971%" y2="99.438%">
      <stop offset="0%" stop-color="#6AFD6C"/>
      <stop offset="100%" stop-color="#00C587"/>
    </linearGradient>
  </defs>
  <g fill="none">
    <path fill="url(#about-icon6-a)" d="M13.3333333,0 L13.3333333,4.76190476 L13.3314286,4.76190476 L13.3314286,17.1428571 L24.76,17.1428571 L24.76,4.76190476 L18.0952381,4.76190476 L18.0952381,0 L38.0952381,0 L38.0933333,17.1428571 L38.0952381,17.1428571 L38.0952381,21.9047619 L29.5219048,21.9047619 L29.5238095,24.7619048 L29.512381,24.7619048 L29.4873625,25.1857048 C29.0296286,30.8135474 24.3172328,35.2380952 18.5714286,35.2380952 C15.1045303,35.2380952 11.4571183,32.4302248 7.62919238,26.8144836 C7.62410895,25.9725114 7.620936,25.2871815 7.61967333,24.7584943 L12.3989964,24.7619221 C12.6421594,27.9583175 15.3127537,30.4761905 18.5714286,30.4761905 C21.8301034,30.4761905 24.5006977,27.9583175 24.7438608,24.7619221 L24.7619048,24.7619048 L24.76,21.9047619 L8.57142857,21.9047619 L8.56952381,4.76190476 L4.76190476,4.76190476 L4.76190476,24.7619048 C4.76190476,32.6516869 11.157837,39.047619 19.047619,39.047619 C26.9374011,39.047619 33.3333333,32.6516869 33.3333333,24.7619048 L38.0952381,24.7619048 L38.0952381,26.7619048 C33.5768539,38.1269842 27.2276476,43.8095238 19.047619,43.8095238 C8.52790952,43.8095238 0,35.2816143 0,24.7619048 L0,0 L13.3333333,0 Z M33.3314286,4.76190476 L29.5219048,4.76190476 L29.5219048,17.1428571 L33.3314286,17.1428571 L33.3314286,4.76190476 Z"/>
    <path fill="url(#about-icon6-b)" d="M13.3333333,2 L13.3333333,19.1428571 L24.7619048,19.1428571 L24.7619048,6.76190476 L18.0952381,6.76190476 L18.0952381,2 L38.0952381,2 L38.0933333,19.1428571 L38.0952381,19.1428571 L38.0952381,23.9047619 L29.5238095,23.9047619 L29.5238095,26.7619048 L29.512381,26.7619048 L29.4873625,27.1857048 C29.0296286,32.8135474 24.3172328,37.2380952 18.5714286,37.2380952 C12.6819792,37.2380952 7.87825467,32.5895547 7.62919238,26.7614109 L12.3989964,26.7619221 C12.6421594,29.9583175 15.3127537,32.4761905 18.5714286,32.4761905 C21.8301034,32.4761905 24.5006977,29.9583175 24.7438608,26.7619221 L24.7619048,26.7619048 L24.7619048,23.9047619 L8.57142857,23.9047619 L8.57142857,6.76190476 L4.76190476,6.76190476 L4.76190476,26.7619048 C4.76190476,34.6516869 11.157837,41.047619 19.047619,41.047619 C26.9374011,41.047619 33.3333333,34.6516869 33.3333333,26.7619048 L38.0952381,26.7619048 C38.0952381,37.2816143 29.5673286,45.8095238 19.047619,45.8095238 C8.52790952,45.8095238 0,37.2816143 0,26.7619048 L0,2 L13.3333333,2 Z M33.3314286,6.76190476 L29.5238095,6.76190476 L29.5238095,19.1428571 L33.3314286,19.1428571 L33.3314286,6.76190476 Z"/>
  </g>
</svg>
