<?xml version="1.0" encoding="UTF-8"?>
<svg width="20px" height="20px" viewBox="0 0 20 20" version="1.1" xmlns="http://www.w3.org/2000/svg" xmlns:xlink="http://www.w3.org/1999/xlink">
    <g id="画板" stroke="none" stroke-width="1" fill="none" fill-rule="evenodd">
        <path d="M10,1 C5.03019069,1 1,5.03072034 1,10 C1,14.9698093 5.03072034,19 10,19 C14.9698093,19 19,14.9692797 19,10 C19,5.03019069 14.9692797,1 10,1 Z M9.94173729,16.2981991 C9.20974577,16.2981991 8.61387713,15.7145127 8.61387713,14.996822 C8.61387713,14.2786017 9.20709747,13.6954449 9.94226694,13.6954449 C10.6742585,13.6954449 11.2701271,14.2786017 11.2701271,14.996822 C11.2701271,15.7145127 10.6769068,16.2981991 9.94226694,16.2981991 L9.94173729,16.2981991 Z M13.5090042,8.93432203 C13.248411,9.34427966 12.6959746,9.90095339 11.8474576,10.6064619 C11.4088983,10.970339 11.1361229,11.2643009 11.0301907,11.4878178 C10.9247881,11.7092161 10.875,12.1064619 10.8855932,12.6795551 L8.99470339,12.6795551 C8.99046611,12.4083686 8.98622882,12.2425847 8.98622882,12.1827331 C8.98622882,11.5704449 9.08739408,11.0677966 9.29025424,10.6726695 C9.49311441,10.2770127 9.89883474,9.83262713 10.504767,9.34004238 C11.1112288,8.84533899 11.4751059,8.52277544 11.5932203,8.36970338 C11.7754237,8.12764829 11.8686441,7.86069914 11.8686441,7.57097458 C11.8686441,7.16737289 11.7044491,6.82203391 11.3818856,6.53283898 C11.059322,6.24470338 10.6207627,6.10010592 10.0725636,6.10010594 C9.54290255,6.10010594 9.10010594,6.25105932 8.74417373,6.55084745 C8.38824153,6.85116525 8.08209746,7.51324153 8.00953389,7.92266949 C7.94120763,8.30932202 6.07733051,8.47351695 6.10010594,7.68908899 C6.12288137,6.90519067 6.53019068,6.05455509 7.22987288,5.43802966 C7.92902542,4.82150424 8.84745763,4.51324153 9.98358051,4.51324153 C11.1795551,4.51324153 12.1287076,4.82574153 12.8363347,5.45074152 C13.5439619,6.07521186 13.8956822,6.80137711 13.8956822,7.63082628 C13.8977754,8.09057205 13.7674788,8.52489407 13.5090042,8.93432203 L13.5090042,8.93432203 Z" id="形状" fill="#7286A6" fill-rule="nonzero"></path>
    </g>
</svg>