<svg xmlns="http://www.w3.org/2000/svg" xmlns:xlink="http://www.w3.org/1999/xlink" width="639" height="827" viewBox="0 0 639 827">
  <defs>
    <linearGradient id="info-flow_h5-b" x1="5.772%" x2="100%" y1="43.729%" y2="56.271%">
      <stop offset="0%" stop-color="#0091FF"/>
      <stop offset="100%" stop-color="#005ADC"/>
    </linearGradient>
    <linearGradient id="info-flow_h5-c" x1="5.772%" x2="100%" y1="48.704%" y2="51.296%">
      <stop offset="0%" stop-color="#0091FF"/>
      <stop offset="100%" stop-color="#005ADC"/>
    </linearGradient>
    <path id="info-flow_h5-a" d="M28.8,65.52 L126.24,65.52 C129.156063,65.52 131.52,67.8839365 131.52,70.8 L131.52,468.24 C131.52,471.156063 129.156063,473.52 126.24,473.52 L28.8,473.52 C25.8839365,473.52 23.52,471.156063 23.52,468.24 L23.52,70.8 C23.52,67.8839365 25.8839365,65.52 28.8,65.52 Z"/>
    <mask id="info-flow_h5-d" width="108" height="408" x="0" y="0" fill="#fff" maskContentUnits="userSpaceOnUse" maskUnits="objectBoundingBox">
      <use xlink:href="#info-flow_h5-a"/>
    </mask>
  </defs>
  <g fill="none" fill-rule="evenodd">
    <g transform="translate(228 420)">
      <path fill="url(#info-flow_h5-b)" d="M5.28,0 L404.72,0 C407.636063,-5.35672171e-16 410,2.36393652 410,5.28 L410,139.92 C410,142.836063 407.636063,145.2 404.72,145.2 L5.28,145.2 C2.36393652,145.2 2.13347162e-15,142.836063 0,139.92 L0,5.28 C5.31063639e-16,2.36393652 2.36393652,1.42385059e-15 5.28,0 Z"/>
      <g transform="translate(11.88 67.32)">
        <rect width="118.8" height="66" fill="#0057C0" rx="5.28"/>
        <text fill="#FFF" font-family="PingFang-SC-Heavy, PingFang SC" font-size="22">
          <tspan x="21.111" y="29.92">Tokens</tspan> <tspan x="18.9" y="56.32">Pool #1</tspan>
        </text>
      </g>
      <g transform="translate(143.88 67.32)">
        <rect width="118.8" height="66" fill="#0057C0" rx="5.28"/>
        <text fill="#FFF" font-family="PingFang-SC-Heavy, PingFang SC" font-size="22">
          <tspan x="21.111" y="29.92">Tokens</tspan> <tspan x="18.9" y="56.32">Pool #2</tspan>
        </text>
      </g>
      <g transform="translate(275.88 67.32)">
        <rect width="118.8" height="66" fill="#0057C0" rx="5.28"/>
        <text fill="#FFF" font-family="PingFang-SC-Heavy, PingFang SC" font-size="22">
          <tspan x="21.111" y="29.92">Tokens</tspan> <tspan x="18.9" y="56.32">Pool #3</tspan>
        </text>
      </g>
      <text fill="#FFF" font-family="PingFang-SC-Heavy, PingFang SC" font-size="24">
        <tspan x="118.8" y="40.48">Prediction Pools</tspan>
      </text>
    </g>
    <g transform="translate(228 760.8)">
      <rect width="410" height="66" fill="url(#info-flow_h5-c)" rx="5.28"/>
      <text fill="#FFF" font-family="PingFang-SC-Heavy, PingFang SC" font-size="24">
        <tspan x="94.984" y="42.2"> LUT in circulation</tspan>
      </text>
    </g>
    <g transform="translate(228.36 209.88)">
      <rect width="410" height="66" fill="url(#info-flow_h5-c)" rx="5.28"/>
      <text fill="#FFF" font-family="PingFang-SC-Heavy, PingFang SC" font-size="24">
        <tspan x="32.34" y="40.48">Lucky Network Smart Contracts</tspan>
      </text>
    </g>
    <g transform="translate(228.36)">
      <rect width="410" height="66" fill="url(#info-flow_h5-c)" rx="5.28"/>
      <text fill="#FFF" font-family="PingFang-SC-Heavy, PingFang SC" font-size="24">
        <tspan x="190.08" y="40.48">User</tspan>
      </text>
    </g>
    <g transform="rotate(-90 453.4 289.4)">
      <g transform="translate(0 92.32)">
        <g transform="translate(0 .08)">
          <rect width="108.24" height="30.36" x="22.74" y="40.26" stroke="#0080E2" stroke-width="1.32" rx="5.28" transform="rotate(90 76.86 55.44)"/>
          <text fill="#FFF" font-family="PingFangSC-Semibold, PingFang SC" font-size="20" font-weight="500" transform="rotate(90 63.32 56.04)">
            <tspan x="26.92" y="48.04">Auction</tspan>
          </text>
          <path fill="#0080E2" fill-rule="nonzero" d="M10.8688889 50.8L10.868 55.439 61.14 55.44 61.14 56.76 10.868 56.759 10.8688889 61.4-.131111111 56.1 10.8688889 50.8zM153.12 50.8C156.157566 50.8 158.62 53.1728908 158.62 56.1 158.62 59.0271092 156.157566 61.4 153.12 61.4 150.314358 61.4 147.999377 59.3756263 147.662225 56.7599703L92.46 56.76 92.46 55.44 147.662354 55.4390287C147.999967 52.8238572 150.314716 50.8 153.12 50.8z"/>
        </g>
        <g transform="translate(0 122.28)">
          <rect width="108.24" height="30.36" x="22.74" y="40.26" stroke="#0080E2" stroke-width="1.32" rx="5.28" transform="rotate(90 76.86 55.44)"/>
          <text fill="#FFF" font-family="PingFangSC-Semibold, PingFang SC" font-size="20" font-weight="500" transform="rotate(90 78.32 56.04)">
            <tspan x="31.41" y="63.04">Buy-back</tspan>
          </text>
          <path fill="#0080E2" fill-rule="nonzero" d="M10.8688889 50.8L10.868 55.439 61.14 55.44 61.14 56.76 10.868 56.759 10.8688889 61.4-.131111111 56.1 10.8688889 50.8zM153.12 50.8C156.157566 50.8 158.62 53.1728908 158.62 56.1 158.62 59.0271092 156.157566 61.4 153.12 61.4 150.314358 61.4 147.999377 59.3756263 147.662225 56.7599703L92.46 56.76 92.46 55.44 147.662354 55.4390287C147.999967 52.8238572 150.314716 50.8 153.12 50.8z"/>
        </g>
        <g transform="translate(0 244.68)">
          <rect width="108.24" height="30.36" x="22.74" y="40.5" stroke="#0080E2" stroke-width="1.32" rx="5.28" transform="rotate(90 76.86 55.68)"/>
          <text fill="#FFF" font-family="PingFangSC-Semibold, PingFang SC" font-size="22" font-weight="500" transform="rotate(90 81.52 54.8)">
            <tspan x="71.62" y="62.8">…</tspan>
          </text>
          <path fill="#0080E2" fill-rule="nonzero" d="M10.8688889 51.04L10.868 55.679 61.14 55.68 61.14 57 10.868 56.999 10.8688889 61.64-.131111111 56.34 10.8688889 51.04zM153.12 51.04C156.157566 51.04 158.62 53.4128908 158.62 56.34 158.62 59.2671092 156.157566 61.64 153.12 61.64 150.314358 61.64 147.999377 59.6156263 147.662225 56.9999703L92.46 57 92.46 55.68 147.662354 55.6790287C147.999967 53.0638572 150.314716 51.04 153.12 51.04z"/>
        </g>
      </g>
      <use stroke="#0080E2" stroke-dasharray="3.96" stroke-width="2.64" mask="url(#info-flow_h5-d)" xlink:href="#info-flow_h5-a"/>
      <text fill="#0080E2" font-family="PingFang-SC-Heavy, PingFang SC" font-size="24" transform="rotate(90 78.9 27)">
        <tspan x="52.452" y="35.5">Burn</tspan>
      </text>
    </g>
    <g transform="translate(228.36 294.36)">
      <path stroke="#0080E2" stroke-width="1.32" d="M404.72,31.02 C405.995778,31.02 407.150778,31.5371111 407.986833,32.3731667 C408.822889,33.2092222 409.34,34.3642222 409.34,35.64 L409.34,35.64 L409.34,69.96 C409.34,71.2357778 408.822889,72.3907778 407.986833,73.2268333 C407.150778,74.0628889 405.995778,74.58 404.72,74.58 L404.72,74.58 L5.28,74.58 C4.00422223,74.58 2.84922223,74.0628889 2.01316667,73.2268333 C1.17711111,72.3907778 0.66,71.2357778 0.66,69.96 L0.66,69.96 L0.66,35.64 C0.66,34.3642222 1.17711111,33.2092222 2.01316667,32.3731667 C2.84922223,31.5371111 4.00422223,31.02 5.28,31.02 L5.28,31.02 Z"/>
      <text fill="#FFF" font-family="PingFang-SC-Heavy, PingFang SC" font-size="24">
        <tspan x="71.76" y="60.28">Manager conversion flow</tspan>
      </text>
      <path fill="#0080E2" fill-rule="nonzero" d="M205.26-4.84C208.187109-4.84 210.56-2.37756612 210.56.66 210.56 3.46528376 208.536143 5.78003271 205.920971 6.11764563L205.92 30.36 204.6 30.36 204.60003 6.11777475C201.984374 5.78062335 199.96 3.46564167 199.96.66 199.96-2.37756612 202.332891-4.84 205.26-4.84zM205.92 75.24L205.92 101.151 210.56 101.151111 205.26 112.151111 199.96 101.151111 204.6 101.151 204.6 75.24 205.92 75.24z"/>
    </g>
    <g transform="translate(228.36 84.48)">
      <path stroke="#0080E2" stroke-width="1.32" d="M404.72,31.02 C405.995778,31.02 407.150778,31.5371111 407.986833,32.3731667 C408.822889,33.2092222 409.34,34.3642222 409.34,35.64 L409.34,35.64 L409.34,69.96 C409.34,71.2357778 408.822889,72.3907778 407.986833,73.2268333 C407.150778,74.0628889 405.995778,74.58 404.72,74.58 L404.72,74.58 L5.28,74.58 C4.00422223,74.58 2.84922223,74.0628889 2.01316667,73.2268333 C1.17711111,72.3907778 0.66,71.2357778 0.66,69.96 L0.66,69.96 L0.66,35.64 C0.66,34.3642222 1.17711111,33.2092222 2.01316667,32.3731667 C2.84922223,31.5371111 4.00422223,31.02 5.28,31.02 L5.28,31.02 Z"/>
      <text fill="#FFF" font-family="PingFang-SC-Heavy, PingFang SC" font-size="24">
        <tspan x="129.924" y="60.28">Betting Tokens</tspan>
      </text>
      <path fill="#0080E2" fill-rule="nonzero" d="M205.26-4.84C208.187109-4.84 210.56-2.37756612 210.56.66 210.56 3.46528376 208.536143 5.78003271 205.920971 6.11764563L205.92 30.36 204.6 30.36 204.60003 6.11777475C201.984374 5.78062335 199.96 3.46564167 199.96.66 199.96-2.37756612 202.332891-4.84 205.26-4.84zM205.92 75.24L205.92 101.151 210.56 101.151111 205.26 112.151111 199.96 101.151111 204.6 101.151 204.6 75.24 205.92 75.24z"/>
    </g>
    <g transform="translate(.861 95.04)">
      <path stroke="#0080E2" stroke-width="1.32" d="M194.72,0.66 C195.995778,0.66 197.150778,1.17711111 197.986833,2.01316667 C198.822889,2.84922223 199.34,4.00422223 199.34,5.28 L199.34,5.28 L199.34,87.12 C199.34,88.3957778 198.822889,89.5507778 197.986833,90.3868333 C197.150778,91.2228889 195.995778,91.74 194.72,91.74 L194.72,91.74 L5.28,91.74 C4.00422223,91.74 2.84922223,91.2228889 2.01316667,90.3868333 C1.17711111,89.5507778 0.66,88.3957778 0.66,87.12 L0.66,87.12 L0.66,5.28 C0.66,4.00422223 1.17711111,2.84922223 2.01316667,2.01316667 C2.84922223,1.17711111 4.00422223,0.66 5.28,0.66 L5.28,0.66 Z"/>
      <text fill="#FFF" font-family="PingFang-SC-Heavy, PingFang SC" font-size="24">
        <tspan x="49.587" y="37.96">Manager </tspan> <tspan x="9.627" y="70.96">conversion flow</tspan>
      </text>
    </g>
    <path fill="#0080E2" fill-rule="nonzero" d="M199.692205 26.68L210.692205 31.98 199.692205 37.28 199.692 32.64 95.699 32.64 95.6999703 65.5422252C98.3156263 65.8793766 100.34 68.1943583 100.34 71 100.34 74.0375661 97.9671092 76.5 95.04 76.5 92.1128908 76.5 89.74 74.0375661 89.74 71 89.74 68.1947162 91.7638572 65.8799673 94.3790287 65.5423544L94.38 31.32 199.692 31.32 199.692205 26.68zM95.04 209.268889L100.34 220.268889 95.699 220.268 95.699 242.22 204.623319 242.22003C204.96047 239.604374 207.275452 237.58 210.081094 237.58 213.11866 237.58 215.581094 239.952891 215.581094 242.88 215.581094 245.807109 213.11866 248.18 210.081094 248.18 207.27581 248.18 204.961061 246.156143 204.623448 243.540971L94.38 243.54 94.379 220.268 89.74 220.268889 95.04 209.268889z"/>
  </g>
</svg>
