<svg xmlns="http://www.w3.org/2000/svg" width="72" height="72" viewBox="0 0 72 72">
  <g fill="none">
    <circle cx="36" cy="36" r="36" fill="#F0B90B"/>
    <path fill="#FFF" d="M46.57935,40.97025 L52.99455,47.35425 L42.00735,58.29825 L35.59935,64.67745 L29.18415,58.29825 L18.20175,47.35425 L24.60975,40.97265 L35.59935,51.90945 L46.57935,40.97025 Z M35.59935,30.02865 L42.00975,36.41265 L35.60175,42.79665 L29.18895,36.41265 L35.59935,30.02865 Z M13.62255,30.02625 L20.03535,36.41025 L13.62495,42.79425 L7.21455002,36.41025 L13.62255,30.02625 Z M57.57375,30.02625 L63.98175,36.41025 L57.57375,42.79425 L51.16575,36.41025 L57.57375,30.02625 Z M35.59695,8.14545 L42.00495,14.52705 L52.99455,25.46625 L46.57935,31.85265 L35.59935,20.90865 L24.60975,31.85265 L18.20175,25.46625 L29.18415,14.52945 L35.59695,8.14545 Z"/>
  </g>
</svg>
