<svg width="44" height="52" viewBox="0 0 44 52" xmlns="http://www.w3.org/2000/svg"><defs><linearGradient x1="50%" y1=".971%" x2="50%" y2="99.059%" id="a"><stop stop-color="#12B27B" offset="0%"/><stop stop-color="#018457" offset="100%"/></linearGradient><linearGradient x1="50%" y1=".971%" x2="50%" y2="99.438%" id="b"><stop stop-color="#6AFD6C" offset="0%"/><stop stop-color="#00C587" offset="100%"/></linearGradient></defs><g transform="translate(.029)" fill="none"><path d="M15,1.14194368e-14 L15,19.285 L27.857,19.285 L27.857,5.357 L20.3571429,5.35714286 L20.3571429,1.14194368e-14 L42.8571429,1.14194368e-14 L42.8571429,24.6428571 L33.214,24.642 L33.2142857,27.8571429 L33.2028467,27.8571983 C32.922342,34.4135739 27.5182818,39.6428571 20.8928571,39.6428571 C16.9925966,39.6428571 12.889258,36.4840028 8.58284144,30.1662941 C8.57799962,29.3643405 8.57469837,28.6887033 8.57293771,28.1393826 L8.5720757,27.8290851 L13.9488403,27.8567597 C14.222205,31.4528957 17.226711,34.2857143 20.8928571,34.2857143 C24.5590033,34.2857143 27.5635092,31.4528957 27.836874,27.8567597 L27.857,27.856 L27.857,24.642 L9.64285714,24.6428571 L9.642,5.357 L5.357,5.357 L5.35714286,27.8571429 C5.35714286,36.7331478 12.5525665,43.9285714 21.4285714,43.9285714 C30.3045763,43.9285714 37.5,36.7331478 37.5,27.8571429 L42.8571429,27.8571429 L42.8571429,30.1071429 C37.7739607,42.8928571 30.6311035,49.2857143 21.4285714,49.2857143 C9.59389822,49.2857143 0,39.6918161 0,27.8571429 L0,1.14194368e-14 L15,1.14194368e-14 Z M37.5,5.357 L33.214,5.357 L33.214,19.285 L37.5,19.285 L37.5,5.357 Z" fill="url(#a)"/><path d="M15,2.25 L15,21.535 L27.857,21.535 L27.857,7.607 L20.3571429,7.60714286 L20.3571429,2.25 L42.8571429,2.25 L42.8571429,26.8928571 L33.214,26.892 L33.2142857,30.1071429 L33.2028467,30.1071983 C32.922342,36.6635739 27.5182818,41.8928571 20.8928571,41.8928571 C14.2674324,41.8928571 8.86337229,36.6635739 8.58286757,30.1071983 L13.9488403,30.1067597 C14.222205,33.7028957 17.226711,36.5357143 20.8928571,36.5357143 C24.5590033,36.5357143 27.5635092,33.7028957 27.836874,30.1067597 L27.857,30.106 L27.857,26.892 L9.64285714,26.8928571 L9.642,7.607 L5.357,7.607 L5.35714286,30.1071429 C5.35714286,38.9831478 12.5525665,46.1785714 21.4285714,46.1785714 C30.3045763,46.1785714 37.5,38.9831478 37.5,30.1071429 L42.8571429,30.1071429 C42.8571429,41.9418161 33.2632446,51.5357143 21.4285714,51.5357143 C9.59389822,51.5357143 0,41.9418161 0,30.1071429 L0,2.25 L15,2.25 Z M37.5,7.607 L33.214,7.607 L33.214,21.535 L37.5,21.535 L37.5,7.607 Z" fill="url(#b)"/></g></svg>