<svg width="20" height="20" viewBox="0 0 20 20" xmlns="http://www.w3.org/2000/svg"><path d="M115.075,3.92682927 C113.1875,2.03814884 110.675,1 108,1 C105.325,1 102.8125,2.03814884 100.925,3.92682927 C97.025,7.82926829 97.025,14.1707317 100.925,18.0731707 C102.8125,19.9618512 105.325,21 108,21 C110.675,21 113.1875,19.9618512 115.075,18.0731707 C116.9625,16.1844903 118,13.6829268 118,11.0062539 C118,8.32958099 116.9625,5.81550969 115.075,3.92682927 Z M113.6625,16.6722952 C112.15,18.1732333 110.1375,19.011257 108,19.011257 C105.8625,19.011257 103.85,18.1732333 102.3375,16.6722952 C99.2125,13.5453408 99.2125,8.46716698 102.3375,5.35272045 C103.85,3.83927455 105.8625,3.0137586 108,3.0137586 C110.1375,3.0137586 112.15,3.85178236 113.6625,5.35272045 C115.175,6.86616635 116,8.87992495 116,11.0187617 C116,13.1575985 115.1625,15.1588493 113.6625,16.6722952 Z M108.9875,10.5809881 C109,10.1432145 109,9.54283927 109,8.67979987 C109,6.27829894 109,6.04065041 108.9875,5.9656035 C108.9625,5.41525954 108.5,4.97748593 107.95,5.00250156 C107.4,5.0275172 106.975,5.49030644 106.9875,6.04065041 C107,6.45340838 106.9875,10.6435272 106.9875,10.9937461 L106.9875,11.4065041 L109.2875,13.7079425 C109.4875,13.9080675 109.7375,13.9956223 110,13.9956223 C110.2625,13.9956223 110.5125,13.8955597 110.7125,13.7079425 C111.1,13.3202001 111.1,12.6823014 110.7125,12.2945591 L108.9875,10.5809881 L108.9875,10.5809881 Z" transform="translate(-98 -1)" fill="#02996A"/></svg>