<svg width="16" height="11" viewBox="0 0 16 11" xmlns="http://www.w3.org/2000/svg"><path d="M295.224213,19.1307023 L298.613833,19.1307023 C298.691588,19.1307023 298.76302,19.086516 298.79973,19.0158093 C298.83644,18.9451026 298.832477,18.8592985 298.789417,18.7925125 L296.406852,15.0969179 C296.36741,15.0358262 296.300753,14.9993847 296.229601,15.0000079 L295.469155,15.006032 C295.216893,15.0080384 295.013421,15.2195644 295.013429,15.4797986 L295.013429,16.7745459 C295.013429,16.9958542 294.839514,17.1752601 294.624978,17.1752601 L283.210992,17.1752601 C283.094464,17.1752601 283,17.2727068 283,17.3929134 L283,18.9121896 C283,19.0323471 283.094512,19.1297245 283.210992,19.1298429 L295.224213,19.1307023 Z M298.793166,21.8763999 L283.400948,21.8763999 C283.297856,21.8762376 283.210456,21.9545656 283.196204,22.0598908 C283.184762,22.118654 283.196777,22.1796939 283.229529,22.2292006 L285.540237,25.7892184 C285.625927,25.9213284 285.770015,26.0004452 285.924105,25.9999981 L286.535003,25.9984922 C286.789096,25.998018 286.994802,25.7853362 286.994687,25.5232215 L286.994687,24.2200947 C286.994632,24.1170866 287.03426,24.0182779 287.104849,23.94542 C287.175438,23.8725621 287.271201,23.8316276 287.371057,23.8316276 L298.793166,23.8316276 C298.907393,23.8316276 298.999996,23.7361048 298.999996,23.6182714 L298.999996,22.0912604 C299.000325,22.034432 298.978688,21.9798103 298.939871,21.9394849 C298.901053,21.8991596 298.848256,21.8764563 298.793166,21.8763999 L298.793166,21.8763999 Z" transform="translate(-283 -15)" fill="#0EC68D"/></svg>