<svg xmlns="http://www.w3.org/2000/svg" width="70" height="72" viewBox="0 0 70 72">
  <g fill="none" fill-rule="evenodd">
    <circle cx="35" cy="36" r="29" fill="#FFF"/>
    <path fill="#00A881" fill-rule="nonzero" d="M39.4433594,32.4140624 L39.4433594,38.8125 C43.0436198,38.578125 45.9716796,38.1796875 48.227539,37.6171875 C50.4833984,37.0546875 51.6341146,36.3750001 51.6796876,35.5781251 C51.6341146,34.8281249 50.4833984,34.1718749 48.227539,33.6093749 C45.9716796,33.0468749 43.0436198,32.6484374 39.4433594,32.4140624 Z M18.1152344,35.5781251 C18.2063802,36.3750001 19.4026693,37.0546875 21.7041016,37.6171875 C24.0055338,38.1796875 26.9791666,38.578125 30.625,38.8125 L30.625,32.4140624 C26.9791666,32.6015626 24.0055338,32.9882813 21.7041016,33.5742188 C19.4026693,34.1601562 18.2063802,34.8281249 18.1152344,35.5781251 Z M35,0 C25.0651042,0.234375001 16.805013,3.73828125 10.2197266,10.5117187 C3.6344401,17.2851562 0.227864584,25.78125 0,36 C0.227864584,46.21875 3.6344401,54.7148438 10.2197266,61.4882812 C16.805013,68.2617187 25.0651042,71.765625 35,72 C44.9348958,71.765625 53.194987,68.2617187 59.7802734,61.4882812 C66.3655598,54.7148438 69.7721354,46.21875 70,36 C69.7721354,25.78125 66.3655598,17.2851562 59.7802734,10.5117187 C53.194987,3.73828125 44.9348958,0.234375001 35,0 Z M39.4433594,40.9218749 L39.4433594,58.5 L30.625,58.5 L30.625,40.9218749 C25.6119792,40.6874999 21.5332032,40.1132812 18.3886719,39.1992188 C15.2441406,38.2851562 13.6035156,37.1953125 13.4667969,35.9296875 C13.6035156,34.6640624 15.2441406,33.5742188 18.3886719,32.6601562 C21.5332032,31.7460937 25.6119792,31.171875 30.625,30.9375 L30.625,25.3828125 L19.0722656,25.3828125 L19.0722656,16.734375 L50.859375,16.734375 L50.859375,25.3828125 L39.4433594,25.3828125 L39.4433594,30.9375 C44.4108072,31.2187499 48.4667969,31.8046875 51.6113282,32.6953125 C54.7558594,33.5859375 56.3964844,34.6640624 56.5332032,35.9296875 C56.3964844,37.1953125 54.7558594,38.2734374 51.6113282,39.1640624 C48.4667969,40.0546874 44.4108072,40.6406251 39.4433594,40.9218749 Z"/>
  </g>
</svg>
