<svg xmlns="http://www.w3.org/2000/svg" width="32" height="18" viewBox="0 0 32 18">
  <path fill="#02996A" d="M126.099572,259.702886 C125.701106,259.31175 125.69621,258.679203 126.088577,258.282173 L126.099572,258.271382 L132.489759,252.000462 L105.030823,252.000462 C104.461515,252.000462 104,251.547561 104,250.988879 C104,250.430196 104.461515,249.977295 105.030823,249.977295 L132.4696,249.977295 L126.099572,243.727955 C125.701106,243.336819 125.69621,242.704273 126.088577,242.307242 L126.099572,242.296452 C126.498147,241.905422 127.142724,241.900618 127.547306,242.285662 L135.667443,250.252446 C135.719281,250.300366 135.765952,250.353398 135.806718,250.410702 L135.696764,250.284816 C135.803163,250.389103 135.885091,250.514919 135.936831,250.653482 C136.073561,251.017027 135.984348,251.425353 135.707759,251.701933 L127.558301,259.702886 C127.365067,259.893094 127.10263,260 126.828937,260 C126.555244,260 126.292807,259.893094 126.099572,259.702886 Z" transform="translate(-104 -242)"/>
</svg>
