<?xml version="1.0" encoding="UTF-8"?>
<svg width="16px" height="16px" viewBox="0 0 16 16" version="1.1" xmlns="http://www.w3.org/2000/svg" xmlns:xlink="http://www.w3.org/1999/xlink">
    <g id="页面-1" stroke="none" stroke-width="1" fill="none" fill-rule="evenodd">
        <g id="1490活动中心" transform="translate(-389.000000, -114.000000)">
            <g id="编组-15" transform="translate(297.000000, 113.000000)">
                <g id="返现" transform="translate(92.000000, 0.000000)">
                    <g transform="translate(0.000000, 1.000000)">
                        <path d="M14.8833333,14 C15.2055339,14 15.4666667,13.7388672 15.4666667,13.4166667 L15.4666667,7.3 C15.4666667,6.97779948 15.2055339,6.71666667 14.8833333,6.71666667 L14.017334,6.71666667 L15.3858887,4.3549642 C15.4373861,4.26609701 15.4645019,4.16515299 15.4645019,4.0625 L15.4645019,1.99166667 C15.4645019,1.76289062 15.3307454,1.55530598 15.1224772,1.46062826 L14.3587891,1.11347656 C13.5119303,0.728499342 12.6108399,0.533333333 11.6804687,0.533333333 L4.3172526,0.533333333 C3.38699545,0.533333333 2.48590493,0.728499342 1.63893229,1.11347656 L0.875358058,1.46062826 C0.667089858,1.55530598 0.533333333,1.76289062 0.533333333,1.99166667 L0.533333333,4.0625 C0.533333333,4.16515299 0.560449233,4.26609701 0.6119466,4.3549642 L1.98038736,6.71666667 L1.11666667,6.71666667 C0.794466146,6.71666667 0.533333333,6.97779948 0.533333333,7.3 L0.533333333,13.1333333 C0.533333333,14.4199707 1.5800293,15.4666667 2.86666667,15.4666667 L13.1333333,15.4666667 C14.4199707,15.4666667 15.4666667,14.4199707 15.4666667,13.1333333 C15.4666667,12.8111328 15.2055339,12.55 14.8833333,12.55 C14.5611328,12.55 14.3,12.8111328 14.3,13.1333333 C14.3,13.7765951 13.7765951,14.3 13.1333333,14.3 L2.86666667,14.3 C2.22340493,14.3 1.7,13.7765951 1.7,13.1333333 L1.7,7.88333333 L5.95833333,7.88333333 L5.95833333,9.37083333 C5.95833333,9.57887368 6.06907552,9.77107747 6.24897462,9.87543945 L7.70730795,10.7212728 C7.7978841,10.7737956 7.89894205,10.8 8,10.8 C8.10105795,10.8 8.20222983,10.7737956 8.29269205,10.7212728 L9.75102538,9.87543945 C9.93092448,9.77107747 10.0416667,9.57887368 10.0416667,9.37083333 L10.0416667,7.88333333 L14.3,7.88333333 L14.3,13.4166667 C14.3,13.7388672 14.5611328,14 14.8833333,14 Z M13.8760579,2.1755534 L14.2978353,2.36730143 L14.2978353,3.1875 L10.0416667,3.1875 L10.0416667,1.7 L11.6804687,1.7 C12.4431315,1.7 13.1817546,1.85996094 13.8760579,2.1755534 Z M7.125,1.7 L8.875,1.7 L8.875,4.02387695 L8,4.54887695 L7.125,4.02387695 L7.125,1.7 Z M2.12177736,2.1755534 C2.8159668,1.85996094 3.55470378,1.7 4.3172526,1.7 L5.95833333,1.7 L5.95833333,3.1875 L1.7,3.1875 L1.7,2.36730143 L2.12177736,2.1755534 Z M1.95987955,4.35416667 L5.95833333,4.35416667 C5.95833333,4.55901694 6.06588542,4.74894205 6.24156902,4.85432944 L7.69990236,5.72932944 C7.79230142,5.78481445 7.89609375,5.8125 8,5.8125 C8.10390625,5.8125 8.20769858,5.78481445 8.30009764,5.72932944 L9.75843097,4.85432944 C9.93411458,4.74894205 10.0416667,4.55901694 10.0416667,4.35416667 L14.0379557,4.35416667 L12.6689453,6.71666667 L3.32877604,6.71666667 L1.95987955,4.35416667 Z M8.875,9.03484701 L8,9.54230142 L7.125,9.03484701 L7.125,7.88333333 L8.875,7.88333333 L8.875,9.03484701 Z" id="chest" fill="currentcolor" fill-rule="nonzero"></path>
                    </g>
                </g>
            </g>
        </g>
    </g>
</svg>