<?xml version="1.0" encoding="UTF-8"?>
<svg width="16px" height="14px" viewBox="0 0 16 14" version="1.1" xmlns="http://www.w3.org/2000/svg" xmlns:xlink="http://www.w3.org/1999/xlink">
    <g id="页面-1" stroke="none" stroke-width="1" fill="none" fill-rule="evenodd">
        <g id="1490活动中心" transform="translate(-943.000000, -115.000000)">
            <g id="编组-15" transform="translate(297.000000, 113.000000)">
                <g id="返现" transform="translate(646.000000, 0.000000)">
                    <g transform="translate(0.000000, 1.000000)">
                        <g id="youxi-2" transform="translate(0.000000, 1.600000)" fill="currentcolor" fill-rule="nonzero">
                            <path d="M11.6363636,0 C14.0461818,0 16,1.93836564 16,4.32912483 L16,9.91369586 C16,10.9448467 15.4456274,11.8977031 14.5455188,12.4133013 C13.6454103,12.9288996 12.5364079,12.9288996 11.6362994,12.4133013 C10.7361908,11.8977031 10.1817386,10.9448467 10.1818182,9.91369586 L10.1818182,9.19217505 L5.81781819,9.19217505 L5.81818182,9.91369586 C5.81826138,10.9448467 5.26380918,11.8977031 4.36370065,12.4133013 C3.46359212,12.9288996 2.3545897,12.9288996 1.45448117,12.4133013 C0.554372634,11.8977031 0,10.9448467 0,9.91369586 L0,4.32912483 C0,1.93836564 1.95381818,0 4.36363637,0 L11.6363636,0 Z M11.2842105,1.06666667 L4.71578947,1.06666667 C2.73431579,1.06666667 1.12213332,2.63263493 1.06812631,4.58439524 L1.06666667,4.68572899 L1.06666667,9.92613122 C1.06794728,10.9092925 1.86052824,11.7115582 2.8516231,11.7328985 C3.84271796,11.7542388 4.66966064,10.9868446 4.7139649,10.0046649 L4.71578947,9.92613122 L4.71578947,8.4785063 C4.71578947,8.3825228 4.75423547,8.29047053 4.8226698,8.22259995 C4.89110412,8.15472936 4.98392099,8.11660006 5.08070175,8.11660006 L10.9192983,8.11660006 C11.016079,8.11660006 11.1088959,8.15472936 11.1773302,8.22259995 C11.2457645,8.29047053 11.2842105,8.3825228 11.2842105,8.4785063 L11.2842105,9.92613122 C11.2854909,10.9092927 12.078072,11.7115586 13.069167,11.7328989 C14.060262,11.7542391 14.8872047,10.9868448 14.9315088,10.0046649 L14.9333333,9.92613122 L14.9333333,4.68572899 C14.9333333,2.68692088 13.2996211,1.06666667 11.2842105,1.06666667 Z M5.33333333,3.73333333 L5.33333333,4.26666667 L5.86666667,4.26666667 C6.16121853,4.26666667 6.4,4.50544813 6.4,4.8 C6.4,5.09455187 6.16121853,5.33333333 5.86666667,5.33333333 L5.33333333,5.33333333 L5.33333333,5.86666667 C5.33333333,6.16121853 5.09455187,6.4 4.8,6.4 C4.50544813,6.4 4.26666667,6.16121853 4.26666667,5.86666667 L4.26666667,5.33333333 L3.73333333,5.33333333 C3.43878147,5.33333333 3.2,5.09455187 3.2,4.8 C3.2,4.50544813 3.43878147,4.26666667 3.73333333,4.26666667 L4.26666667,4.26666667 L4.26666667,3.73333333 C4.26666667,3.43878147 4.50544813,3.2 4.8,3.2 C5.09455187,3.2 5.33333333,3.43878147 5.33333333,3.73333333 Z M12.2666667,3.73333333 L12.2666667,4.26666667 L12.8,4.26666667 C13.0945519,4.26666667 13.3333333,4.50544813 13.3333333,4.8 C13.3333333,5.09455187 13.0945519,5.33333333 12.8,5.33333333 L12.2666667,5.33333333 L12.2666667,5.86666667 C12.2666667,6.16121853 12.0278852,6.4 11.7333333,6.4 C11.4387815,6.4 11.2,6.16121853 11.2,5.86666667 L11.2,5.33333333 L10.6666667,5.33333333 C10.3721148,5.33333333 10.1333333,5.09455187 10.1333333,4.8 C10.1333333,4.50544813 10.3721148,4.26666667 10.6666667,4.26666667 L11.2,4.26666667 L11.2,3.73333333 C11.2,3.43878147 11.4387815,3.2 11.7333333,3.2 C12.0278852,3.2 12.2666667,3.43878147 12.2666667,3.73333333 Z" id="形状"></path>
                        </g>
                    </g>
                </g>
            </g>
        </g>
    </g>
</svg>