<?xml version="1.0" encoding="UTF-8"?>
<svg width="16px" height="16px" viewBox="0 0 16 16" version="1.1" xmlns="http://www.w3.org/2000/svg" xmlns:xlink="http://www.w3.org/1999/xlink">
    <g id="页面-1" stroke="none" stroke-width="1" fill="none" fill-rule="evenodd">
        <g id="1490活动中心" transform="translate(-748.000000, -114.000000)">
            <g id="编组-15" transform="translate(297.000000, 113.000000)">
                <g id="返现" transform="translate(451.000000, 0.000000)">
                    <g transform="translate(0.000000, 1.000000)">
                        <path d="M10.401135,15.4666672 C9.99384735,15.4568765 9.6083778,15.2805242 9.33470123,14.9787306 C8.79039022,14.415506 8.75819888,13.5325436 9.26005087,12.9311777 L9.27338129,12.9151812 L8.00165903,11.5474799 L6.73260284,12.9151812 L6.74859935,12.9311777 C7.24776702,13.5343013 7.21331071,14.4163828 6.66861681,14.9787306 C6.39570238,15.2815642 6.00975927,15.4581331 5.60218305,15.4666672 C5.24783105,15.4695633 4.90880261,15.3223281 4.6690535,15.0613792 L4.34912337,14.7201204 L2.48286429,14.6481361 C2.43848838,14.6456139 2.39460193,14.6375531 2.35222615,14.6241413 C1.8324958,14.4657161 1.43573809,14.0435902 1.30978714,13.5150502 C1.29906796,13.4777835 1.29368229,13.4391861 1.29379064,13.4004086 L1.22447244,11.3581879 L0.891211892,10.9982665 C0.391320949,10.3958105 0.424627702,9.51375575 0.968528335,8.95071371 C1.24191083,8.64886778 1.62779135,8.47329214 2.0349621,8.46548634 C2.37126883,8.46076111 2.69558492,8.59029564 2.93609863,8.82540774 L4.20515482,7.46837077 L2.82412309,5.96736524 C2.76263314,5.90204492 2.71861744,5.82226645 2.69615104,5.7354159 L1.55773299,1.20307241 C1.50976259,1.01683755 1.56579369,0.819200606 1.70436764,0.685852031 C1.84487393,0.548067609 2.04984846,0.498873719 2.23758453,0.557879971 L6.42866923,1.78694489 C6.52158394,1.81378827 6.60544827,1.86539709 6.6712829,1.93624561 L8.00432511,3.36793295 L9.33736731,1.93624561 C9.40193928,1.86516908 9.48502347,1.81347225 9.57731491,1.78694489 L13.7737318,0.557879971 C13.9614678,0.498873725 14.1664424,0.548067614 14.3069487,0.685852031 C14.4445692,0.818660911 14.5005216,1.01500292 14.4535833,1.20040631 L13.3124992,5.73274982 C13.2908036,5.81933586 13.2477181,5.89908987 13.1871932,5.96469916 L11.7928311,7.46837077 L13.0672194,8.82540774 C13.3070647,8.59259789 13.628776,8.46333891 13.9630238,8.46548634 C14.3700514,8.47392203 14.7556942,8.64938952 15.0294575,8.95071371 C15.5737685,9.51393822 15.6059599,10.3969007 15.1041079,10.9982665 L14.7708473,11.3581879 L14.7041952,13.4004086 C14.7016389,13.4389587 14.6962927,13.4772728 14.6881987,13.5150502 C14.5622478,14.0435902 14.1654901,14.4657161 13.6457597,14.6241413 C13.603314,14.6372704 13.5594624,14.6453248 13.5151216,14.6481361 L11.6488625,14.7201204 L11.3315984,15.0613792 C11.0920812,15.3210853 10.7544245,15.468145 10.401135,15.4666672 Z M8.00165903,10.2304342 C8.15037569,10.2301686 8.29244617,10.2920224 8.39357343,10.4010636 L10.3878046,12.5525937 C10.577479,12.7571108 10.577479,13.0732517 10.3878046,13.2777687 L10.0358814,13.6563527 C9.91654785,13.8494318 9.94880614,14.0997116 10.1131979,14.2562217 C10.2518343,14.4028563 10.4544567,14.4455137 10.5557679,14.3362042 L11.0249988,13.8323143 C11.1210237,13.7285604 11.2543209,13.6671861 11.3955845,13.6616849 L13.3951478,13.5843684 C13.5143369,13.528511 13.604386,13.424906 13.6430936,13.2990974 L13.7150779,11.1235725 C13.7222918,10.9942814 13.7763084,10.8720334 13.8670447,10.7796476 L14.3362756,10.2730916 C14.4552053,10.0808382 14.4229271,9.83151688 14.2589591,9.67588867 C14.1855631,9.59055339 14.080714,9.53860977 13.9683559,9.5319201 C13.9112662,9.52971112 13.8559582,9.55202838 13.8163891,9.59324005 L13.464466,9.97182404 C13.3616527,10.076862 13.2208661,10.1360624 13.0738846,10.1360624 C12.9269032,10.1360624 12.7861165,10.076862 12.6833032,9.97182404 L10.6677434,7.82029391 C10.478069,7.6157769 10.478069,7.29963597 10.6677434,7.09511895 L12.2993871,5.33550324 L13.179195,1.84293266 L10.0092206,2.76806395 L8.39090734,4.51434924 C8.28763418,4.61954336 8.14640782,4.67880499 7.99899293,4.67880499 C7.85157804,4.67880499 7.71035169,4.61954336 7.60707852,4.51434924 L5.98876529,2.76806395 L2.81879093,1.84293266 L3.69859879,5.33550324 L5.33557461,7.09511895 C5.52524903,7.29963597 5.52524903,7.6157769 5.33557461,7.82029391 L3.33867738,9.97182404 C3.23363102,10.0806889 3.08728605,10.1398084 2.93609863,10.1344552 C2.78830954,10.1339798 2.64734665,10.0721878 2.54685032,9.96382578 L2.19492717,9.6012383 C2.09361596,9.49459492 1.88832746,9.5345862 1.74969108,9.68388693 C1.5856168,9.83970175 1.5543693,10.0896818 1.67504071,10.2810898 L2.13627331,10.7796476 C2.22437732,10.8728106 2.27473483,10.9953789 2.27757579,11.1235725 L2.35222615,13.2990974 C2.39093374,13.424906 2.48098292,13.528511 2.600172,13.5843684 L4.59973531,13.6616849 C4.74099892,13.6671861 4.87429606,13.7285604 4.97032105,13.8323143 L5.43688582,14.3362042 C5.53819702,14.4455137 5.74348553,14.4055224 5.88212191,14.2562217 C6.04564007,14.0990327 6.07677708,13.8488246 5.95677228,13.6563527 L5.60218305,13.2777687 C5.41250863,13.0732517 5.41250863,12.7571108 5.60218305,12.5525937 L7.60707852,10.4010636 C7.70883469,10.2913378 7.85201599,10.2294216 8.00165903,10.2304342 L8.00165903,10.2304342 Z" id="形状" fill="currentcolor" fill-rule="nonzero"></path>
                    </g>
                </g>
            </g>
        </g>
    </g>
</svg>