<?xml version="1.0" encoding="UTF-8"?>
<svg width="16px" height="16px" viewBox="0 0 16 16" version="1.1" xmlns="http://www.w3.org/2000/svg" xmlns:xlink="http://www.w3.org/1999/xlink">
    <g id="页面-1" stroke="none" stroke-width="1" fill="none" fill-rule="evenodd">
        <g id="1490活动中心" transform="translate(-570.000000, -114.000000)">
            <g id="编组-15" transform="translate(297.000000, 113.000000)">
                <g id="返现" transform="translate(273.000000, 0.000000)">
                    <g transform="translate(0.000000, 1.000000)">
                        <path d="M13.275535,2.71525767 C11.8747707,1.31747525 9.97618296,0.532694148 7.99689952,0.533333724 C6.08795902,0.533333724 4.17901852,1.26340739 2.71826405,2.71525767 C-0.194976906,5.63344945 -0.194976906,10.3582395 2.71826405,13.2764313 C4.11517128,14.6809836 6.01554848,15.4694912 7.99689952,15.4666588 C9.90584001,15.4666588 11.8230802,14.7365779 13.275535,13.2764313 C16.1970439,10.3644345 16.1970439,5.63555077 13.275535,2.71525767 Z M13.8482171,10.986656 L13.4332301,9.82517584 L14.462398,9.14488028 C14.3794006,9.60117609 14.2632042,10.0491756 14.0806099,10.4805825 C14.0225117,10.6548046 13.9395143,10.8207303 13.8482171,10.986656 Z M14.5702946,7.99999264 L12.8190492,9.16147285 L10.7192146,8.46458473 L9.93903897,5.95910598 L11.2005996,4.20029308 L13.2921344,4.10903392 C13.6158244,4.54873714 13.8897158,5.01332922 14.0889096,5.51940275 C14.4125995,6.31584632 14.5702946,7.14547504 14.5702946,7.99999264 Z M7.99689952,10.0657682 L6.15435694,8.66369561 L6.87643443,6.34903148 L9.13396406,6.34903148 L9.85604156,8.66369561 L7.99689952,10.0657682 Z M10.9433077,2.12622127 C11.5242896,2.41659132 12.0637727,2.79822053 12.536858,3.25451633 L11.2835971,3.30429405 L10.9433077,2.12622127 L10.9433077,2.12622127 Z M9.88924052,1.70311062 L10.4702224,3.69421955 L9.20866173,5.46132874 L6.81833624,5.46132874 L5.52357661,3.68592327 L6.07965927,1.7114069 C6.70064325,1.51944076 7.34689758,1.42156419 7.99689952,1.42103685 C8.64427934,1.42103685 9.27505967,1.52059229 9.88924052,1.70311062 Z M5.03389187,2.13451756 L4.69360249,3.32918292 L3.41544232,3.2794052 C3.89682731,2.81481311 4.44461024,2.43318391 5.03389187,2.13451756 Z M1.89658968,5.52769904 C2.09578347,5.03821809 2.36137519,4.5819223 2.66846561,4.15051536 L4.80979886,4.22518194 L6.07135954,5.94251339 L5.25798489,8.53925131 L3.24114775,9.34399117 L1.43180415,8.29865898 C1.43180415,8.19910353 1.41520467,8.09954808 1.41520467,7.99999264 C1.41520467,7.14547506 1.58119949,6.31584634 1.89658968,5.52769904 L1.89658968,5.52769904 Z M1.5811995,9.41865776 L2.68506509,10.0657682 L2.31987648,11.3102112 C2.16218139,11.0447301 2.02108579,10.7626563 1.90488941,10.4722862 C1.7637938,10.1321385 1.65589717,9.77539811 1.5811995,9.41865776 Z M3.34074465,12.6459135 C3.20794879,12.5131729 3.09175241,12.3804323 2.97555604,12.2393954 L3.58143715,10.1736199 L5.59827428,9.36058375 L7.56531297,10.8539155 L7.56531297,12.8782095 L5.85556626,14.2139118 C5.73936988,14.1724304 5.62317351,14.1392452 5.51527686,14.0977638 C4.70190222,13.7659123 3.97152498,13.2764313 3.34074465,12.6459135 Z M7.99689952,14.5789484 C7.64831038,14.5789484 7.30802098,14.5457633 6.9677316,14.4876893 L8.03009848,13.6663568 L9.06756613,14.4876893 C8.71897699,14.537467 8.35378838,14.5789484 7.99689952,14.5789484 L7.99689952,14.5789484 Z M10.4702224,14.0977638 C10.3706255,14.1392452 10.2627289,14.1724304 10.1548322,14.2056155 L8.46168503,12.8699133 L8.46168503,10.8373229 L10.4619227,9.31910231 L12.5534575,10.0076941 L13.2506357,11.9490254 C13.0680414,12.1896177 12.8688476,12.43021 12.6530544,12.6459135 C12.0139743,13.2764313 11.2835971,13.7659123 10.4702224,14.0977638 L10.4702224,14.0977638 Z" id="形状" fill="currentcolor" fill-rule="nonzero"></path>
                    </g>
                </g>
            </g>
        </g>
    </g>
</svg>