<?xml version="1.0" encoding="UTF-8"?>
<svg width="16px" height="16px" viewBox="0 0 16 16" version="1.1" xmlns="http://www.w3.org/2000/svg" xmlns:xlink="http://www.w3.org/1999/xlink">
    <g id="页面-1" stroke="none" stroke-width="1" fill="none" fill-rule="evenodd">
        <g id="1490活动中心" transform="translate(-297.000000, -114.000000)" fill="currentcolor" fill-rule="nonzero">
            <g id="编组-15" transform="translate(297.000000, 113.000000)">
                <g id="返现" transform="translate(0.000000, 1.000000)">
                    <g id="quanbu-2" transform="translate(0.533333, 0.533333)">
                        <path d="M1.24533443,6.81039248 L5.45539525,6.81039248 C6.13271973,6.81039248 6.6849864,6.25317855 6.6849864,5.56842454 L6.6849864,1.24072968 C6.68703791,0.558507015 6.13637423,0.00341143623 5.45415699,0 L1.24409619,0 C0.562363355,0.00409145423 0.0124512194,0.558987688 0.0145005865,1.24072968 L0.0145005865,5.56842454 C0.0117686815,6.25112992 0.56263208,6.80698101 1.24533443,6.81039248 Z M1.24533443,1.26054173 L5.45539525,1.26054173 L5.45539525,5.58823659 L1.24533443,5.58823659 L1.24533443,1.26054173 Z M9.31874517,6.81039248 C8.63604281,6.80698102 8.0851794,6.25112992 8.08791131,5.56842454 L8.08791131,1.24072968 C8.08586424,0.558507015 8.63652793,0.00341143623 9.31874517,0 L13.528806,0 C14.2061305,0 14.7584016,0.55721393 14.7584016,1.24072968 L14.7584016,5.56842454 C14.7611335,6.25112992 14.2102701,6.80698101 13.5275677,6.81039248 L9.31750691,6.81039248 L9.31874517,6.81039248 Z M9.31874517,1.26054173 L9.31874517,5.58823659 L13.528806,5.58823659 L13.528806,1.26054173 L9.31874517,1.26054173 Z M5.56931453,8.04864567 C6.24787728,8.04864567 6.80014395,8.6058596 6.80014395,9.2906136 L6.80014395,13.6183085 C6.80219546,14.3005311 6.25153178,14.8556267 5.56931453,14.8590381 L1.35925373,14.8590381 C0.677520901,14.8549467 0.127608765,14.3000505 0.129658132,13.6183085 L0.129658132,9.2906136 C0.126926227,8.60790823 0.677789625,8.05205713 1.36049198,8.04864567 L5.5705528,8.04864567 L5.56931453,8.04864567 Z M5.56931453,13.6368823 L5.56931453,9.31166391 L1.35925373,9.31166391 L1.35925373,13.6381205 L5.56931453,13.6381205 L5.56931453,13.6368823 Z M13.6427253,8.04864567 C14.321288,8.04864567 14.8735547,8.6058596 14.8735547,9.2906136 L14.8735547,13.6183085 C14.8756062,14.3005311 14.3249425,14.8556267 13.6427253,14.8590381 L9.43266445,14.8590381 C8.75093162,14.8549467 8.20101948,14.3000505 8.20306885,13.6183085 L8.20306885,9.2906136 C8.20033695,8.60790822 8.75120035,8.05205712 9.43390271,8.04864567 L13.6439635,8.04864567 L13.6427253,8.04864567 Z M13.6427253,13.6368823 L13.6427253,9.31166391 L9.43266445,9.31166391 L9.43266445,13.6381205 L13.6427253,13.6381205 L13.6427253,13.6368823 Z" id="形状"></path>
                    </g>
                </g>
            </g>
        </g>
    </g>
</svg>