<?xml version="1.0" encoding="UTF-8"?>
<svg width="16px" height="16px" viewBox="0 0 16 16" version="1.1" xmlns="http://www.w3.org/2000/svg" xmlns:xlink="http://www.w3.org/1999/xlink">
    <g id="页面-1" stroke="none" stroke-width="1" fill="none" fill-rule="evenodd">
        <g id="1490活动中心" transform="translate(-1131.000000, -114.000000)">
            <g id="编组-15" transform="translate(297.000000, 113.000000)">
                <g id="返现" transform="translate(834.000000, 0.000000)">
                    <g transform="translate(0.000000, 1.000000)">
                        <path d="M7.97408552,0.547951264 C8.9453852,0.548319787 9.89942552,0.80472456 10.7400478,1.2913223 C12.4249398,2.25889931 13.50704,4.06572966 13.5644046,6.00706299 L13.5665674,6.07678621 L13.6272276,6.11108138 C13.8688414,6.2479909 14.092409,6.41454223 14.2927393,6.60686805 C14.5120045,6.81668556 14.703475,7.05373938 14.8624717,7.31223632 C15.0193314,7.56953297 15.1407846,7.84680384 15.2235494,8.13655632 L15.2282869,8.15385839 C15.3138503,8.4560254 15.3573315,8.76856099 15.3573315,9.08260874 C15.3564046,9.86769011 15.1142786,10.5746032 14.6377508,11.1853251 C14.2090881,11.747067 13.6144873,12.159634 12.9382345,12.3645434 L12.8191798,12.4007954 L13.5598731,14.7800359 L13.4929306,14.8704598 L12.8280368,14.8704598 L12.7534731,14.8162878 L12.5089784,14.0866143 L11.84048,11.8432156 L11.8979476,11.7662832 L11.9447044,11.7666952 C12.6341468,11.7654344 13.2931989,11.4827975 13.7693517,10.9841885 C14.2819255,10.4679071 14.5426924,9.83689655 14.5426924,9.11062161 C14.5426924,8.686 14.4460892,8.28413885 14.2557664,7.91626391 C14.1083262,7.63165328 13.9125112,7.37485297 13.677074,7.15734161 L13.5120864,7.00471264 L13.471406,7.22572598 C13.3037353,8.13208189 12.9114317,8.98191371 12.3303963,9.69745011 C11.7358777,10.4414178 10.9620879,11.0221411 10.0816423,11.3851228 L9.97721195,11.428172 L10.792057,14.0718869 L11.0026685,14.7668533 L10.935726,14.8570713 L10.2837057,14.8570713 L10.2087301,14.8028993 L9.96526529,14.0868202 L8.87997241,10.9893379 L8.93424736,10.8944855 C10.0054502,10.6731285 10.9678378,10.0898556 11.6597352,9.24265287 C12.3927044,8.36374897 12.7648018,7.33602667 12.7648018,6.18904368 C12.7648018,5.66545011 12.6812782,5.15153747 12.5162906,4.66172414 C12.3520239,4.17252874 12.1199908,3.72607356 11.8266795,3.3351292 C11.5326665,2.94247913 11.1854603,2.59263866 10.7950437,2.29566621 C10.4033784,1.99782345 9.95692322,1.76640828 9.46844874,1.60687908 C8.97545097,1.44600016 8.46002088,1.36448107 7.94143816,1.36537103 L7.91630897,1.36537103 C7.07777468,1.36565735 6.25419734,1.5874594 5.52893241,2.00832828 C4.79889726,2.42790516 4.19325068,3.03365836 3.7738023,3.76376736 C3.34742989,4.50157701 3.13115402,5.31734897 3.13115402,6.1879108 C3.12088466,7.30621487 3.51335306,8.39087675 4.23683862,9.24368276 C4.95755218,10.1084772 5.8695154,10.6633793 6.94749609,10.8931467 L7.00280092,10.988823 L5.93079356,14.0853784 L5.68712276,14.8020754 L5.61225011,14.8560414 L4.94787126,14.8560414 L4.88061977,14.7639697 L5.1043108,14.070754 L5.9188469,11.4268331 L5.81379862,11.3841959 C4.93007052,11.024562 4.15384475,10.4434124 3.55989517,9.6967292 C2.98193808,8.97997521 2.59176195,8.13045811 2.42465287,7.22500506 L2.38417839,7.00460966 L2.2191908,7.15641471 C1.98293831,7.37341643 1.78691995,7.63048568 1.64018943,7.91574897 C1.44996966,8.28341793 1.35336644,8.6850731 1.35336644,9.10907678 C1.34502437,9.80981057 1.62793379,10.4942722 2.12969379,10.9856303 C2.59963034,11.4799752 3.26452414,11.7651503 3.95083954,11.7651503 L3.99800828,11.7647384 L4.05547586,11.8420828 L3.3858446,14.0848634 L3.14258575,14.8153609 L3.06730115,14.8693269 L2.40312828,14.8693269 L2.33597977,14.7780791 L3.07657011,12.4001775 L2.95792736,12.3635136 C2.27470161,12.1526961 1.70229149,11.7557784 1.25645425,11.1835743 C0.780235402,10.5720285 0.538682617,9.86490943 0.538682617,9.08260874 C0.535524503,8.46345726 0.704348791,7.85558286 1.02637793,7.3267577 C1.32874606,6.8222038 1.75610459,6.40413875 2.26718345,6.11293517 L2.3285646,6.07802207 L2.32969747,6.00726897 C2.33545182,5.66047673 2.37581755,5.31512549 2.45019402,4.97635402 C2.52867342,4.61919985 2.64188128,4.27057347 2.7882023,3.9354492 C2.93372639,3.60572934 3.11076195,3.29083851 3.3168423,2.99516414 C3.51971882,2.70257246 3.74826131,2.42863856 3.99975908,2.17661149 C4.50881773,1.66774664 5.11265145,1.26355802 5.77713471,0.986888276 C6.1152713,0.846259727 6.46592178,0.737847387 6.82442483,0.663092414 C7.19050264,0.586727116 7.56346356,0.548212784 7.93742161,0.548157241 L7.97408552,0.547951264 Z M6.11318621,6.40593747 L6.18867678,6.48184 C6.1932551,6.62409967 6.21546424,6.7652419 6.2547954,6.9020331 C6.41586943,7.49483494 6.88518805,7.96641931 7.47912276,8.13099494 C7.62680828,8.17466207 7.78314483,8.19711356 7.94164414,8.19711356 L7.9715108,8.19731954 C8.43001563,8.19731954 8.87523494,8.00761471 9.19285149,7.67671264 C9.52766713,7.342 9.69718621,6.94981977 9.70882391,6.48081011 L9.78390253,6.40593747 L10.451886,6.40593747 L10.5228451,6.47092322 C10.5132671,7.16650759 10.2599154,7.76723954 9.76948414,8.25664092 C9.26844506,8.75737103 8.65545747,9.01134069 7.94710253,9.01134069 C7.23843862,9.01134069 6.62596598,8.75788598 6.12698667,8.25777379 C5.63799724,7.76981425 5.38443954,7.17206897 5.37259586,6.48081011 L5.44757149,6.40593747 L6.11318621,6.40593747 Z" id="形状结合" stroke="currentcolor" stroke-width="0.5" fill="currentcolor" fill-rule="nonzero"></path>
                    </g>
                </g>
            </g>
        </g>
    </g>
</svg>