<svg xmlns="http://www.w3.org/2000/svg" width="33" height="20" viewBox="0 0 33 20"><path fill="#3B99FC" d="M6.75578462,3.90765075 C12.1373752,-1.30255025 20.8626575,-1.30255025 26.2442478,3.90765075 L26.891931,4.53470678 C27.1610105,4.7952168 27.1610105,5.21758707 26.891931,5.47809721 L24.6763363,7.62313098 C24.5417965,7.7533861 24.3236644,7.7533861 24.1891246,7.62313098 L23.2978358,6.7602273 C19.5435038,3.12546086 13.4565288,3.12546086 9.70219667,6.7602273 L8.7477,7.68432595 C8.61316012,7.81458097 8.39502803,7.81458097 8.26048838,7.68432595 L6.04489371,5.53929218 C5.77581418,5.27878203 5.77581418,4.85641178 6.04489371,4.59590174 L6.75578462,3.90765075 Z M30.8263069,8.34380739 L32.7981904,10.2528982 C33.0672685,10.5134071 33.0672701,10.9357748 32.7981938,11.1962854 L23.9068347,19.8046127 C23.6377571,20.0651247 23.201493,20.0651276 22.9324116,19.8046195 C22.9324105,19.8046184 22.9324092,19.8046171 22.9324081,19.804616 L16.6218624,13.6950355 C16.5545926,13.629908 16.4455265,13.629908 16.3782566,13.6950355 C16.3782562,13.6950359 16.3782559,13.6950363 16.3782554,13.6950367 L10.0678442,19.8046127 C9.79876732,20.0651253 9.36250314,20.0651297 9.09342092,19.8046222 C9.09341935,19.8046207 9.09341766,19.8046191 9.09341598,19.8046174 L0.201809564,11.1961757 C-0.0672698547,10.9356657 -0.0672698547,10.5132954 0.201809564,10.2527853 L2.17369665,8.34369771 C2.44277607,8.08318767 2.87904024,8.08318767 3.14811978,8.34369771 L9.4587573,14.4533636 C9.52602723,14.5184911 9.63509312,14.5184911 9.70236305,14.4533636 C9.70236406,14.4533626 9.70236497,14.4533618 9.70236597,14.453361 L16.0126872,8.34369771 C16.2817606,8.08318167 16.7180248,8.0831719 16.9871104,8.34367595 C16.9871142,8.3436796 16.9871179,8.34368327 16.9871216,8.34368694 L23.2977508,14.453361 C23.3650206,14.5184884 23.4740867,14.5184884 23.5413565,14.453361 L29.8518838,8.34380739 C30.1209633,8.08329724 30.5572274,8.08329724 30.8263069,8.34380739 Z"/></svg>