<svg xmlns="http://www.w3.org/2000/svg" width="29" height="27" viewBox="0 0 29 27"><g fill="none" stroke-linecap="round" stroke-linejoin="round" stroke-width=".25" transform="translate(1 1)"><polygon fill="#E17726" stroke="#E17726" points="26.319 0 15.502 8.003 17.514 3.287"/><polygon fill="#E27625" stroke="#E27625" points="1.369 0 12.089 8.078 10.174 3.287"/><polygon fill="#E27625" stroke="#E27625" points="22.424 18.557 19.546 22.953 25.709 24.65 27.474 18.653"/><polygon fill="#E27625" stroke="#E27625" points=".225 18.653 1.979 24.65 8.131 22.953 5.264 18.557"/><polygon fill="#E27625" stroke="#E27625" points="7.799 11.13 6.087 13.712 12.186 13.99 11.982 7.427"/><polygon fill="#E27625" stroke="#E27625" points="19.888 11.13 15.641 7.352 15.502 13.99 21.6 13.712"/><polygon fill="#E27625" stroke="#E27625" points="8.131 22.953 11.822 21.171 8.645 18.696"/><polygon fill="#E27625" stroke="#E27625" points="15.866 21.171 19.546 22.953 19.043 18.696"/><polygon fill="#D5BFB2" stroke="#D5BFB2" points="19.546 22.954 15.866 21.172 16.166 23.562 16.133 24.576"/><polygon fill="#D5BFB2" stroke="#D5BFB2" points="8.131 22.954 11.555 24.576 11.533 23.562 11.822 21.172"/><polygon fill="#233447" stroke="#233447" points="11.619 17.116 8.559 16.22 10.72 15.228"/><polygon fill="#233447" stroke="#233447" points="16.069 17.116 16.968 15.228 19.14 16.22"/><polygon fill="#CC6228" stroke="#CC6228" points="8.131 22.953 8.666 18.557 5.264 18.653"/><polygon fill="#CC6228" stroke="#CC6228" points="19.022 18.557 19.546 22.953 22.424 18.653"/><polygon fill="#CC6228" stroke="#CC6228" points="21.6 13.712 15.502 13.99 16.069 17.116 16.968 15.228 19.14 16.22"/><polygon fill="#CC6228" stroke="#CC6228" points="8.559 16.22 10.72 15.228 11.619 17.116 12.186 13.99 6.087 13.712"/><polygon fill="#E27525" stroke="#E27525" points="6.088 13.712 8.645 18.696 8.559 16.22"/><polygon fill="#E27525" stroke="#E27525" points="19.14 16.22 19.044 18.696 21.601 13.712"/><polygon fill="#E27525" stroke="#E27525" points="12.186 13.99 11.619 17.116 12.336 20.809 12.496 15.943"/><polygon fill="#E27525" stroke="#E27525" points="15.502 13.99 15.203 15.932 15.352 20.809 16.069 17.116"/><polygon fill="#F5841F" stroke="#F5841F" points="16.069 17.116 15.352 20.809 15.866 21.171 19.044 18.696 19.14 16.22"/><polygon fill="#F5841F" stroke="#F5841F" points="8.559 16.22 8.644 18.696 11.822 21.171 12.335 20.809 11.619 17.116"/><polygon fill="#C0AC9D" stroke="#C0AC9D" points="16.134 24.576 16.166 23.562 15.887 23.327 11.801 23.327 11.533 23.562 11.555 24.576 8.131 22.953 9.329 23.935 11.758 25.611 15.919 25.611 18.359 23.935 19.546 22.953"/><polygon fill="#161616" stroke="#161616" points="15.866 21.171 15.352 20.809 12.335 20.809 11.822 21.171 11.533 23.562 11.801 23.327 15.887 23.327 16.166 23.562"/><polygon fill="#763E1A" stroke="#763E1A" points="26.779 8.526 27.688 4.108 26.319 0 15.866 7.737 19.889 11.13 25.57 12.784 26.821 11.322 26.276 10.927 27.142 10.138 26.479 9.625 27.346 8.964"/><polygon fill="#763E1A" stroke="#763E1A" points="0 4.108 .92 8.526 .332 8.964 1.209 9.625 .546 10.138 1.412 10.927 .867 11.322 2.118 12.784 7.799 11.13 11.822 7.737 1.369 0"/><polygon fill="#F5841F" stroke="#F5841F" points="25.57 12.784 19.889 11.13 21.601 13.712 19.044 18.696 22.424 18.653 27.474 18.653"/><polygon fill="#F5841F" stroke="#F5841F" points="7.799 11.13 2.118 12.784 .225 18.653 5.264 18.653 8.644 18.696 6.087 13.712"/><polygon fill="#F5841F" stroke="#F5841F" points="15.502 13.99 15.866 7.736 17.514 3.287 10.174 3.287 11.822 7.736 12.186 13.99 12.325 15.953 12.335 20.809 15.352 20.809 15.363 15.953"/></g></svg>